# xmcd
#
# Track frame offsets: 
#        150
#        16184
#        32333
#        46438
#        64500
#        79445
#        97836
#        115444
#        129453
#        143046
#        157427
#        175248
#        192167
#
# Disc length: 2757 seconds
#
# Revision: 1
# Processed by: cddbd v1.5.2PL0 Copyright (c) Steve Scherf et al.
# Submitted via: ExactAudioCopyFreeDBPlugin 1.0
#
DISCID=ab0ac30d
DTITLE=Lee Hyori 이효리 - It's Hyorish
DYEAR=2008
DGENRE=Dance
TTITLE0=Lee Hyori the Invincible 천하무적 이효리
TTITLE1=Lesson
TTITLE2=U-Go-Girl (feat Nassun 낯선)
TTITLE3=Photo Album 사진첩
TTITLE4=A Barbershop's Daughter 이발소 집 딸
TTITLE5=Don't Cry
TTITLE6=Do You Think It'll Be Okay? 괜찮아질까요? (feat Bigtone)
TTITLE7=Sexy Boy (feat Wheesun 휘성)
TTITLE8=Red Car 빨간자동차 (feat  Kim Gun-mo 김건모)
TTITLE9=Hey Mr.Big
TTITLE10=P.P.P (Punky Punky Party) (feat Nassun 낯선)
TTITLE11=My Life (외국곡)
TTITLE12=Unusual (feat Seo Jung-hwan 서정환)
EXTD=
EXTT0=
EXTT1=
EXTT2=
EXTT3=
EXTT4=
EXTT5=
EXTT6=
EXTT7=
EXTT8=
EXTT9=
EXTT10=
EXTT11=
EXTT12=
PLAYORDER=
